<?xml version="1.0" encoding="UTF-8" standalone="no"?>
<svg
   xmlns:dc="http://purl.org/dc/elements/1.1/"
   xmlns:cc="http://creativecommons.org/ns#"
   xmlns:rdf="http://www.w3.org/1999/02/22-rdf-syntax-ns#"
   xmlns:svg="http://www.w3.org/2000/svg"
   xmlns="http://www.w3.org/2000/svg"
   xmlns:xlink="http://www.w3.org/1999/xlink"
   xmlns:sodipodi="http://sodipodi.sourceforge.net/DTD/sodipodi-0.dtd"
   xmlns:inkscape="http://www.inkscape.org/namespaces/inkscape"
   width="1052.3622"
   height="744.09448"
   id="svg3355"
   version="1.1"
   inkscape:version="0.91 r13725"
   sodipodi:docname="aeroplane.svg">
  <metadata
     id="metadata3402">
    <rdf:RDF>
      <cc:Work
         rdf:about="">
        <dc:format>image/svg+xml</dc:format>
        <dc:type
           rdf:resource="http://purl.org/dc/dcmitype/StillImage" />
      </cc:Work>
    </rdf:RDF>
  </metadata>
  <sodipodi:namedview
     pagecolor="#ffffff"
     bordercolor="#666666"
     borderopacity="1"
     objecttolerance="10"
     gridtolerance="10"
     guidetolerance="10"
     inkscape:pageopacity="0"
     inkscape:pageshadow="2"
     inkscape:window-width="1920"
     inkscape:window-height="1013"
     id="namedview3400"
     showgrid="false"
     inkscape:zoom="1.0805079"
     inkscape:cx="526.18109"
     inkscape:cy="372.04724"
     inkscape:window-x="0"
     inkscape:window-y="44"
     inkscape:window-maximized="0"
     inkscape:current-layer="svg3355" />
  <title
     id="title3357">Aeroplane</title>
  <defs
     id="defs3359">
    <linearGradient
       id="linearGradient2234">
      <stop
         id="stop2236"
         offset="0"
         stop-color="#c7e9ff" />
      <stop
         id="stop2242"
         offset="1"
         stop-color="#7d9cc3" />
      <stop
         id="stop2238"
         offset="1"
         stop-opacity="0"
         stop-color="#c7e9ff" />
    </linearGradient>
    <linearGradient
       gradientTransform="scale(1.588103,0.629682)"
       gradientUnits="userSpaceOnUse"
       id="linearGradient2240"
       x1="245.63799"
       x2="248.28288"
       xlink:href="#linearGradient2234"
       y1="440.9628"
       y2="469.2569" />
    <linearGradient
       gradientTransform="scale(1.299080,0.769775)"
       gradientUnits="userSpaceOnUse"
       id="linearGradient2250"
       x1="303.69617"
       x2="157.02548"
       xlink:href="#linearGradient2234"
       y1="366.64093"
       y2="296.04565" />
    <linearGradient
       gradientTransform="scale(0.782380,1.278152)"
       gradientUnits="userSpaceOnUse"
       id="linearGradient2258"
       x1="592.34766"
       x2="327.76645"
       xlink:href="#linearGradient2234"
       y1="141.39658"
       y2="131.06137" />
    <linearGradient
       gradientTransform="scale(2.181401,0.458421)"
       gradientUnits="userSpaceOnUse"
       id="linearGradient2266"
       x1="164.09859"
       x2="144.29811"
       xlink:href="#linearGradient2234"
       y1="608.97015"
       y2="-95.821327" />
    <linearGradient
       gradientTransform="scale(1.618848,0.617723)"
       gradientUnits="userSpaceOnUse"
       id="linearGradient2274"
       x1="129.47664"
       x2="94.635979"
       xlink:href="#linearGradient2234"
       y1="371.78345"
       y2="350.34622" />
    <linearGradient
       gradientTransform="scale(0.968308,1.032730)"
       gradientUnits="userSpaceOnUse"
       id="linearGradient2290"
       x1="237.0161"
       x2="205.29095"
       xlink:href="#linearGradient2234"
       y1="184.19492"
       y2="182.43005" />
    <linearGradient
       id="linearGradient2324"
       x1="1.468026"
       x2="-0.793621"
       xlink:href="#linearGradient2234"
       y1="0.341366"
       y2="0.216126" />
    <linearGradient
       id="linearGradient2326"
       x1="1.666814"
       x2="-3.66718"
       xlink:href="#linearGradient2234"
       y1="0.611084"
       y2="0.404787" />
    <linearGradient
       id="linearGradient2328"
       x1="0.425905"
       x2="0.337697"
       xlink:href="#linearGradient2234"
       y1="1.223685"
       y2="-1.940333" />
    <linearGradient
       id="linearGradient2330"
       x1="0.867587"
       x2="0.103862"
       xlink:href="#linearGradient2234"
       y1="0.217377"
       y2="-0.263081" />
    <linearGradient
       id="linearGradient2332"
       x1="0.396411"
       x2="0.457135"
       xlink:href="#linearGradient2234"
       y1="0.245229"
       y2="0.909453" />
    <linearGradient
       id="linearGradient2334"
       x1="0.784661"
       x2="-0.280722"
       xlink:href="#linearGradient2234"
       y1="0.375328"
       y2="-0.139343" />
  </defs>
  <g
     id="g3377">
    <title
       id="title3379">Layer 1</title>
    <g
       transform="rotate(15.6016 524.137 389.919)"
       id="layer1">
      <g
         id="g2302"
         transform="matrix(2.1205 0 0 2.55369 -250.663 -157.86)">
        <path
           d="m192.019928,167.935242l-1.940414,-13.582916l-10.672272,-0.970184l-0.970215,5.821228l13.582901,8.731873z"
           id="path2212"
           stroke-width="1px"
           stroke="#000000"
           fill-rule="evenodd"
           fill="#ffffff" />
        <path
           d="m406.435516,168.905441l-21.344543,-56.271973l-16.4935,-2.910614c0,0 0.970215,33.957199 0,48.5103c-0.970215,14.553116 -0.970215,15.523315 -0.970215,15.523315l38.808258,-4.851028z"
           id="path2210"
           stroke-width="1px"
           stroke="#000000"
           fill-rule="evenodd"
           fill="#ffffff" />
        <path
           d="m138.658585,185.398926c4.851028,-2.910614 14.553085,-2.910614 14.553085,-2.910614l-34.927437,-58.212364l18.433922,-1.940407l68.884659,55.301758l322.108551,-14.553101c0,0 29.106201,0.9702 40.748657,3.880829c11.642517,2.910614 18.433899,10.672272 23.284973,12.612671c4.851013,1.94043 14.553101,4.851028 15.523254,10.672272c0.970215,5.821228 1.94043,6.791458 -4.851013,10.672272c-6.791443,3.880829 -33.957214,10.672272 -41.718872,11.642471c-7.761658,0.9702 -128.067291,2.910629 -132.918274,4.851028c-4.851074,1.940414 -25.225372,6.791443 -31.0466,6.791443c-5.821228,0 -66.944275,0.970215 -73.735687,-0.970184c-6.791443,-1.94043 -93.139786,-4.851044 -102.841888,-6.791473c-9.702057,-1.940399 -45.599686,-9.702057 -51.420929,-11.642456c-5.821243,-1.94043 -24.255157,-5.821228 -28.135971,-9.702087c-3.880844,-3.880798 -1.940414,-9.702057 -1.940414,-9.702057l-0.000015,0z"
           id="path2204"
           stroke-width="1px"
           stroke="#000000"
           fill-rule="evenodd"
           fill="#ffffff" />
        <path
           d="m174.452438,206.500473c0,0 35.612289,7.025421 50.990326,7.727997c15.378036,0.70253 66.368332,0.70253 125.452347,1.405075c59.083984,0.702545 265.473358,-15.455933 237.954803,-8.430511c-27.518555,7.025436 -24.281067,6.322861 -34.802917,7.025436l-127.071106,4.215225c0,0 -12.140564,3.512726 -19.424896,4.215271c-7.284332,0.702545 -80.127625,0.702545 -80.127625,0.702545l-39.659119,-2.810196c0,0 -57.465286,-1.40509 -65.558975,-2.81015c-8.093704,-1.405075 -47.752838,-11.240692 -47.752838,-11.240692z"
           id="path2298"
           stroke-width="1px"
           fill-rule="evenodd"
           fill-opacity="0.286486"
           fill="#000000" />
        <path
           d="m151.271255,196.071198l-36.867836,23.284958l18.433922,-1.940414c0,0 49.480515,-19.404114 50.450714,-20.374313c0.970215,-0.97023 10.672272,-2.910629 0,-4.851059c-10.672256,-1.940399 -32.0168,3.880829 -32.0168,3.880829z"
           id="path2206"
           stroke-width="1px"
           stroke="#000000"
           fill-rule="evenodd"
           fill="#ffffff" />
        <path
           d="m349.238068,246.173111c2.575409,-1.144653 10.854919,-3.294922 19.872925,-4.613953c-0.42511,0.397888 24.868317,-5.42334 27.778931,-0.062683c2.910614,3.357574 3.420258,4.265106 3.831757,11.517136c-0.733124,4.962738 -1.765991,12.165741 -6.554352,13.0242c-6.791443,0 -25.748596,-0.111755 -41.271912,-3.022369c-15.523285,-2.910614 -21.344543,-3.880859 -21.344543,-3.880859l0.970215,-8.731827l16.71698,-4.229645z"
           id="path2214"
           stroke-width="1px"
           stroke="#000000"
           fill-rule="evenodd"
           fill="#ffffff" />
        <path
           d="m334.640259,220.326355c-7.761658,11.642487 -17.463715,22.314743 -17.463715,22.314743l-94.110016,70.825089c0,0 2.910599,5.821228 12.612686,1.940399c9.702087,-3.880829 120.305588,-68.884659 120.305588,-68.884659l43.659271,-29.106186c0,0 6.791443,-1.940399 0,-4.851028c-6.791443,-2.910614 -20.374329,-1.94043 -33.957214,0c-13.582886,1.940414 -31.0466,7.761642 -31.0466,7.761642z"
           id="path2208"
           stroke-width="1px"
           stroke="#000000"
           fill-rule="evenodd"
           fill="#ffffff" />
        <path
           d="m224.036743,198.981842l86.348358,-0.970215"
           id="path2216"
           stroke-dashoffset="0"
           stroke-dasharray="4.3000000 4.3000000 "
           stroke-miterlimit="4"
           stroke-width="4.3"
           stroke="#000000"
           fill-rule="evenodd"
           fill-opacity="0.75"
           fill="none" />
        <path
           d="m331.729645,197.041428l98.961029,-0.97023"
           id="path2218"
           stroke-dashoffset="0"
           stroke-dasharray="4.5000000 4.5000000 "
           stroke-miterlimit="4"
           stroke-width="4.5"
           stroke="#000000"
           fill-rule="evenodd"
           fill-opacity="0.75"
           fill="none" />
        <path
           d="m454.945831,194.130798l76.646332,-0.970215"
           id="path2220"
           stroke-dashoffset="0"
           stroke-dasharray="4.9000000 4.9000000 "
           stroke-miterlimit="4"
           stroke-width="4.9"
           stroke="#000000"
           fill-rule="evenodd"
           fill-opacity="0.75"
           fill="none" />
        <path
           d="m541.193115,203.791367c0,0 -1.476074,-3.029968 -2.303589,-10.428452c-0.119385,-6.791443 -0.041565,-11.743622 0.464294,-11.844788l9.803284,-0.565536c0.606995,2.32695 0.041504,4.851013 1.011658,11.642456c0.160828,6.791458 2.142761,11.440155 0.827576,11.237808l-9.803223,-0.041489z"
           id="path2228"
           stroke-opacity="0.47027"
           stroke-width="1px"
           stroke="#000000"
           fill-rule="evenodd"
           fill-opacity="0.75"
           fill="none" />
        <path
           d="m562.645203,183.691772l0.286133,9.729279c0,0 3.433899,0.286163 10.587769,-2.003082c7.15387,-2.289246 16.883179,-11.446228 16.883179,-12.018555c0,-0.572296 -7.726196,-5.150772 -7.726196,-5.150772c0,0 0.572266,1.716934 -3.147705,4.00618c-3.720032,2.289215 -16.883179,5.436951 -16.883179,5.436951z"
           id="path2230"
           stroke-width="1px"
           stroke="#000000"
           fill-rule="evenodd"
           fill-opacity="0.264865"
           fill="#000000" />
        <path
           d="m394.681122,264.10144c-3.720032,-3.433838 -3.720032,-6.009247 -3.720032,-10.015411c0,-4.00621 0.286163,-10.30162 2.289246,-11.446243c2.003113,-1.144623 1.430786,-1.716949 3.433868,0.286163c2.003082,2.003082 2.861572,5.723114 2.861572,8.012344c0,2.289276 -0.286163,6.295441 -1.430786,8.870819c-1.144623,2.575409 -2.289246,4.292328 -3.433868,4.292328z"
           id="path2232"
           stroke-width="1px"
           stroke="#000000"
           fill-rule="evenodd"
           fill-opacity="0.681081"
           fill="#000000" />
        <path
           d="m155.027557,181.274261l-12.949905,-22.662354c0,0 10.521805,16.187393 16.996765,18.615524c6.47496,2.428085 42.896606,0.809357 42.896606,0.809357l-46.943466,3.237473z"
           id="path2292"
           stroke-width="1px"
           fill-rule="evenodd"
           fill-opacity="0.286486"
           fill="#000000" />
        <path
           d="m389.744843,216.077179c0,0 -29.137299,21.852982 -85.793182,55.03717c-56.655899,33.184143 -66.368362,41.277863 -71.224564,41.277863c-4.856232,0 0,-4.046844 0,-4.046844c0,0 114.930527,-66.368362 157.017746,-92.268188z"
           id="path2294"
           stroke-width="1px"
           fill-rule="evenodd"
           fill="#ffffff" />
        <path
           d="m385.269897,119.334045l16.996765,49.371552l-30.756042,1.618744c0,0 5.665588,0.809387 21.04361,-4.046844c15.378021,-4.856232 -7.284332,-46.943451 -7.284332,-46.943451z"
           id="path2296"
           stroke-width="1px"
           fill-rule="evenodd"
           fill-opacity="0.286486"
           fill="#000000" />
        <path
           d="m336.949707,258.8461c23.625366,5.992371 54.05899,6.674042 55.876831,5.992371c-1.590607,-3.635681 -3.720093,-4.786957 -3.365173,-11.218658c0.809357,-10.521805 1.774567,-9.824966 2.683472,-12.778976c-2.045074,1.590637 -3.492859,5.027191 -5.111603,9.883438c0.426331,5.992371 2.683502,7.810211 -4.60083,10.238312c-7.284332,2.428101 -45.482697,-2.116486 -45.482697,-2.116486z"
           id="path2300"
           stroke-width="1px"
           fill-rule="evenodd"
           fill-opacity="0.286486"
           fill="#000000" />
      </g>
    </g>
  </g>
  <path
     sodipodi:type="spiral"
     style="fill:none;fill-rule:evenodd;stroke:#000000;stroke-width:1px;stroke-linecap:butt;stroke-linejoin:miter;stroke-opacity:1"
     id="path3397"
     sodipodi:cx="360.01587"
     sodipodi:cy="74.039223"
     sodipodi:expansion="1"
     sodipodi:revolution="3"
     sodipodi:radius="186.76805"
     sodipodi:argument="-18.011574"
     sodipodi:t0="0"
     d="m 360.01587,74.039223 c 6.26435,6.9604 -6.29187,11.878232 -11.56864,10.411759 -14.29973,-3.974052 -15.65026,-22.62921 -9.25488,-33.549045 11.43983,-19.533023 38.52602,-20.466235 55.52945,-8.097993 24.95322,18.150894 25.43815,54.643246 6.94111,77.509846 -24.65366,30.47759 -70.83935,30.47732 -99.49025,5.78423 C 266.11842,95.02429 266.62125,39.024831 297.54531,4.6273666 334.9985,-37.032571 400.87364,-36.0184 440.99637,1.1569065 488.27962,44.966719 486.74922,120.75364 443.30994,166.58836 c -50.15235,52.91801 -135.874,50.86843 -187.41186,1.1567 -58.56058,-56.48563 -55.98992,-152.157503 1.9e-4,-209.392264 62.81246,-64.208756 168.44554,-61.115746 231.37267,1.157073 69.86104,69.134632 66.24479,184.736981 -2.31396,253.353061" />
</svg>
